<svg xmlns="http://www.w3.org/2000/svg" viewBox="0 0 362.41 91.47"><defs><style>.cls-1{fill:#193661;}.cls-2{fill:#4d98d3;}</style></defs><title>Asset 3</title><g id="Layer_2" data-name="Layer 2"><g id="Layer_1-2" data-name="Layer 1"><path class="cls-1" d="M127.36,9.66V24.25l.72,0h23c.74,0,.74,0,.74.74,0,2.46,0,4.93,0,7.39,0,.52-.16.67-.68.67H128c-.66,0-.66,0-.66.68,0,3.17,0,6.34,0,9.51,0,.91-.14.87.85.87h27.33c.7,0,.7,0,.7.69,0,2.49,0,5,0,7.49,0,.53-.16.66-.67.66q-18.1,0-36.22,0c-.79,0-.79,0-.79-.78V1.6c0-.72,0-.72.71-.72h33.58c1,0,1.93,0,2.89,0,.35,0,.49.1.49.47q0,3.93,0,7.85c0,.33-.1.49-.44.46H127.36Z"/><path class="cls-1" d="M27.82,0a27.82,27.82,0,0,1,9.93,1.89A27.39,27.39,0,0,1,48.94,9.83,26.38,26.38,0,0,1,54.45,20.6a26,26,0,0,1,.64,8.91,29.87,29.87,0,0,1-1,4.84A24.86,24.86,0,0,1,48.9,44a27.24,27.24,0,0,1-9.68,7.29,28.15,28.15,0,0,1-7.79,2.23,27.85,27.85,0,0,1-16.34-2.67,27.46,27.46,0,0,1-9.73-8.11,25.9,25.9,0,0,1-4.42-9,25.48,25.48,0,0,1-.75-9.87A26.73,26.73,0,0,1,10.11,6.13a27.25,27.25,0,0,1,8.54-4.67A28.89,28.89,0,0,1,27.82,0ZM27.2,8.79c-.74.08-2,.13-3.2.35a18.46,18.46,0,0,0-7.65,3.29A17.77,17.77,0,0,0,9.23,23.12a17,17,0,0,0,.14,8.13,17.63,17.63,0,0,0,5.16,8.63,18.68,18.68,0,0,0,10.61,4.95,19.08,19.08,0,0,0,8.06-.64A18.78,18.78,0,0,0,40.58,40a17.71,17.71,0,0,0,5.49-9.48,17.59,17.59,0,0,0-4-15.24C38.23,11,33.41,8.91,27.2,8.79Z"/><path class="cls-1" d="M74.88,37.55V52.91c-.21,0-.38,0-.54,0-2.55,0-5.1,0-7.65,0-.45,0-.58-.13-.58-.58q0-25.44,0-50.89c0-.46.12-.62.61-.62,7.35,0,14.7,0,22.06,0a18.62,18.62,0,0,1,14.43,6.49,17.52,17.52,0,0,1,3.87,7.31,17.93,17.93,0,0,1-3.23,15.59,18.77,18.77,0,0,1-9.45,6.49,19.29,19.29,0,0,1-5.86.8c-4.32,0-8.64,0-13,0Zm0-18.39c0,3,0,6,0,9,0,.45.09.62.59.62,4.41,0,8.82,0,13.23,0a10.48,10.48,0,0,0,5.09-1.28,9.34,9.34,0,0,0,5-7.09,9.23,9.23,0,0,0-4.36-9.1,10.73,10.73,0,0,0-5.89-1.62c-4.33,0-8.67,0-13,0-.49,0-.65.11-.64.62C74.9,13.23,74.89,16.19,74.89,19.16Z"/><path class="cls-1" d="M68,82.53V73.24H66.72a1,1,0,0,1-1-1,1,1,0,0,1,1-1H68V67.58a1.13,1.13,0,0,1,1.13-1.16,1.17,1.17,0,0,1,1.16,1.16v3.63h4a1.06,1.06,0,0,1,1,1,1,1,0,0,1-1,1h-4v9a2.28,2.28,0,0,0,2.59,2.57,6.39,6.39,0,0,0,1.4-.21,1,1,0,0,1,1,1,1,1,0,0,1-.66.89,5.77,5.77,0,0,1-2.26.42C69.84,86.88,68,85.66,68,82.53Z"/><path class="cls-1" d="M79.2,72.23a1.16,1.16,0,0,1,1.13-1.17,1.14,1.14,0,0,1,1.16,1.17v2.89C82.63,72.55,84.86,71,86.8,71a1.11,1.11,0,0,1,1.13,1.17,1.14,1.14,0,0,1-1,1.16c-3,.36-5.42,2.59-5.42,7V85.6a1.13,1.13,0,0,1-1.13,1.16A1.15,1.15,0,0,1,79.2,85.6Z"/><path class="cls-1" d="M90.1,82.14v-.06c0-3.24,2.68-5,6.59-5a16.23,16.23,0,0,1,4.73.66v-.54c0-2.77-1.7-4.2-4.59-4.2a9.77,9.77,0,0,0-4,.86,1.09,1.09,0,0,1-.41.09,1,1,0,0,1-1-1,1,1,0,0,1,.63-1,12.07,12.07,0,0,1,5-1,6.77,6.77,0,0,1,5,1.7,6.1,6.1,0,0,1,1.58,4.5v8.43a1.09,1.09,0,0,1-1.11,1.13,1.06,1.06,0,0,1-1.1-1.07v-1.4a6.75,6.75,0,0,1-5.57,2.65C93,86.94,90.1,85.3,90.1,82.14ZM101.45,81V79.46a16.36,16.36,0,0,0-4.53-.65c-2.88,0-4.49,1.25-4.49,3.19v.06c0,1.93,1.78,3.06,3.87,3.06C99.13,85.12,101.45,83.4,101.45,81Z"/><path class="cls-1" d="M114.71,86.85h-.12a1.43,1.43,0,0,1-1.31-1L107.5,72.82a2.43,2.43,0,0,1-.15-.62,1.17,1.17,0,0,1,1.17-1.14,1.19,1.19,0,0,1,1.16.9l5,12,5.06-12.09a1.12,1.12,0,0,1,2.21.3,1.59,1.59,0,0,1-.12.56L116,85.87A1.39,1.39,0,0,1,114.71,86.85Z"/><path class="cls-1" d="M132.65,87A7.66,7.66,0,0,1,125,79V78.9c0-4.44,3.13-8,7.39-8,4.56,0,7.15,3.72,7.15,7.8a1.07,1.07,0,0,1-1.08,1.07H127.28A5.37,5.37,0,0,0,132.7,85a6.29,6.29,0,0,0,4.44-1.78,1,1,0,0,1,.66-.27,1,1,0,0,1,.65,1.73A7.81,7.81,0,0,1,132.65,87Zm4.55-8.91c-.24-2.8-1.84-5.24-4.91-5.24-2.68,0-4.71,2.24-5,5.24Z"/><path class="cls-1" d="M143.76,65.88a1.15,1.15,0,1,1,2.29,0V85.6a1.12,1.12,0,0,1-1.13,1.16,1.15,1.15,0,0,1-1.16-1.16Z"/><path class="cls-1" d="M159.16,82.14v-.06c0-3.24,2.68-5,6.58-5a16.25,16.25,0,0,1,4.74.66v-.54c0-2.77-1.7-4.2-4.59-4.2a9.7,9.7,0,0,0-4,.86,1.17,1.17,0,0,1-.41.09,1,1,0,0,1-1-1,1,1,0,0,1,.63-1,12.07,12.07,0,0,1,5-1,6.78,6.78,0,0,1,5,1.7,6.1,6.1,0,0,1,1.57,4.5v8.43a1.09,1.09,0,0,1-1.1,1.13,1.06,1.06,0,0,1-1.1-1.07v-1.4a6.75,6.75,0,0,1-5.57,2.65C162.05,86.94,159.16,85.3,159.16,82.14ZM170.51,81V79.46a16.36,16.36,0,0,0-4.53-.65c-2.89,0-4.49,1.25-4.49,3.19v.06c0,1.93,1.78,3.06,3.87,3.06C168.19,85.12,170.51,83.4,170.51,81Z"/><path class="cls-1" d="M178,89.62a1.07,1.07,0,0,1-.6-1,1.1,1.1,0,0,1,1-1,.9.9,0,0,1,.5.15,9.68,9.68,0,0,0,5.45,1.67c3.4,0,5.6-1.87,5.6-5.48V82.17a7.28,7.28,0,0,1-6,3.25,7.12,7.12,0,0,1-7.24-7.21v-.06A7.29,7.29,0,0,1,189.93,74V72.23a1.15,1.15,0,0,1,1.14-1.17,1.17,1.17,0,0,1,1.16,1.17v11.7a7.42,7.42,0,0,1-2,5.45,8.09,8.09,0,0,1-5.87,2.06A12.08,12.08,0,0,1,178,89.62ZM190,78.18v-.06a5.4,5.4,0,0,0-5.66-5.21A5.1,5.1,0,0,0,179,78.09v.06a5.22,5.22,0,0,0,5.33,5.25A5.44,5.44,0,0,0,190,78.18Z"/><path class="cls-1" d="M204.09,87a7.66,7.66,0,0,1-7.69-8V78.9c0-4.44,3.13-8,7.39-8,4.56,0,7.15,3.72,7.15,7.8a1.07,1.07,0,0,1-1.08,1.07H198.73A5.37,5.37,0,0,0,204.15,85a6.29,6.29,0,0,0,4.43-1.78,1,1,0,0,1,.66-.27,1,1,0,0,1,1,1,1,1,0,0,1-.35.75A7.83,7.83,0,0,1,204.09,87Zm4.55-8.91c-.23-2.8-1.84-5.24-4.91-5.24-2.68,0-4.71,2.24-5,5.24Z"/><path class="cls-1" d="M215,72.23a1.15,1.15,0,1,1,2.3,0v1.66a5.83,5.83,0,0,1,5.27-3c3.72,0,5.89,2.5,5.89,6.16V85.6a1.14,1.14,0,0,1-1.13,1.16,1.15,1.15,0,0,1-1.16-1.16v-8c0-2.86-1.55-4.65-4.26-4.65a4.53,4.53,0,0,0-4.61,4.83v7.8a1.13,1.13,0,0,1-1.14,1.16A1.15,1.15,0,0,1,215,85.6Z"/><path class="cls-1" d="M232.39,79v-.06a8,8,0,0,1,13.55-5.81,1.08,1.08,0,0,1,.36.8A1.11,1.11,0,0,1,245.2,75a1.2,1.2,0,0,1-.75-.27,5.94,5.94,0,0,0-4.2-1.85,5.69,5.69,0,0,0-5.51,6v.06a5.76,5.76,0,0,0,5.66,6A6.15,6.15,0,0,0,244.69,83a.91.91,0,0,1,.66-.3,1.08,1.08,0,0,1,1,1,1,1,0,0,1-.3.72A7.74,7.74,0,0,1,240.28,87,7.91,7.91,0,0,1,232.39,79Z"/><path class="cls-1" d="M250.06,91a1,1,0,0,1-.72-1,1,1,0,0,1,1-1,1.75,1.75,0,0,1,.56.12,4.75,4.75,0,0,0,1.67.27c1.43,0,2.18-.89,3.1-2.74l.12-.24-6.44-13.64a1.61,1.61,0,0,1-.15-.62,1.15,1.15,0,0,1,1.17-1.14,1.22,1.22,0,0,1,1.16.9l5.36,12.09,4.77-12.12a1.13,1.13,0,0,1,2.23.27,1.87,1.87,0,0,1-.12.56l-6,14.36c-1.34,3.19-2.83,4.35-5.15,4.35A6.57,6.57,0,0,1,250.06,91Z"/><path class="cls-2" d="M228.77,52.92V44.81c0-.68,0-.69.68-.69h19.89a9.83,9.83,0,0,0,3.79-.61,5.17,5.17,0,0,0,2.93-6.87,5.28,5.28,0,0,0-3-2.53c-2-.8-4-1.52-6.1-2.19-2.56-.83-5.17-1.51-7.72-2.38A21.82,21.82,0,0,1,231.07,25a12.21,12.21,0,0,1-3.77-6.83,14.78,14.78,0,0,1,0-5.74,13.66,13.66,0,0,1,6.86-9.46A16.2,16.2,0,0,1,242.41.87q10.25,0,20.51,0c.47,0,.62.12.61.6q0,3.81,0,7.6c0,.5-.16.6-.62.6q-10.16,0-20.31,0a8.69,8.69,0,0,0-4.21,1,5.12,5.12,0,0,0,0,8.88,24.14,24.14,0,0,0,4.83,2c3.18,1,6.38,1.88,9.55,2.91a22.29,22.29,0,0,1,8.53,4.64A11.77,11.77,0,0,1,265,35.75a14.12,14.12,0,0,1-.36,7.13,13.79,13.79,0,0,1-8.12,8.8A16.11,16.11,0,0,1,250.08,53H229.31Z"/><path class="cls-1" d="M205.46,40.05V1.62c0-.74,0-.74.72-.74,2.5,0,5,0,7.49,0,.48,0,.62.14.62.61q0,25.42,0,50.85c0,.51-.16.63-.65.63q-5,0-10,0a.85.85,0,0,1-.83-.45l-23-36.06c-.5-.79-1-1.59-1.53-2.38a.92.92,0,0,0-.41-.36V52.18c0,.77,0,.77-.78.77-2.46,0-4.93,0-7.39,0-.49,0-.61-.15-.61-.61q0-25.43,0-50.85c0-.51.17-.63.65-.63,3.34,0,6.69,0,10,0a.82.82,0,0,1,.79.42Q192.7,20.4,204.92,39.51c.13.2.27.39.4.58Z"/><path class="cls-2" d="M358.69,46l-.38.5h0l-1,1.35c-.25.31-.47.6-.71.87a19.45,19.45,0,0,1-11.91,6.6,20.89,20.89,0,0,1-6.88-.15,30.33,30.33,0,0,1-7.59-2.56c-3.73-1.74-7.43-3.55-11.19-5.24a53.81,53.81,0,0,0-10.44-3.49c-2.22-.49-4.49-.83-6.74-1.17a32.73,32.73,0,0,0-4.06-.36c-2.65-.06-5.3,0-7.95,0-1,0-1.92.09-3,.15V32.11c0-.78,0-.78.79-.78h23c.72,0,.72,0,.72-.75V23.19c0-.69,0-.69-.71-.69-7.7,0-15.4,0-23.1,0-.52,0-.66-.14-.66-.66,0-3.84,0-7.69,0-11.53,0-.66,0-.66.68-.66q13.77,0,27.54,0c.51,0,.68-.12.68-.66,0-2.43,0-4.86,0-7.29,0-.84,0-.84-.82-.84h-36c-.82,0-.82,0-.82.81V52.27c0,.3.11.41.41.35.62-.13,1.24-.28,1.87-.35,3.21-.38,6.42-.86,9.64-1.07A56.3,56.3,0,0,1,304.2,52a45,45,0,0,1,8.85,2.52c3.37,1.41,6.69,2.95,10,4.52,4.71,2.24,9.44,4.37,14.68,5.07a30.19,30.19,0,0,0,9.25-.19,26.1,26.1,0,0,0,6.37-2,29.54,29.54,0,0,0,9.07-6.47l-2.52-6.38Z"/><path class="cls-2" d="M362,43.37l-.61,0h-8.16a.71.71,0,0,1-.8-.53q-2.34-6-4.7-11.92c-1.07-2.7-2.15-5.39-3.22-8.09-1.26-3.17-2.51-6.34-3.78-9.52-.06-.15-.15-.29-.27-.53-.46,1.15-.89,2.19-1.31,3.24q-1.46,3.63-2.89,7.27-3.75,9.39-7.48,18.8c-.51,1.27-.51,1.28-1.89,1.28h-7.28l-.75,0c.31-.79.58-1.5.87-2.21q3.44-8.69,6.88-17.37l6.1-15.36q1.39-3.51,2.77-7a.69.69,0,0,1,.74-.53c2.82,0,5.65,0,8.47,0a.67.67,0,0,1,.73.48c1.1,2.82,2.22,5.62,3.33,8.43l5.37,13.59q2.39,6,4.75,12c1,2.6,2.05,5.21,3.08,7.81A1.82,1.82,0,0,1,362,43.37Z"/></g></g></svg>